HIERARCHY
ROOT Hips
{
  OFFSET 53.7281 95.6246 11.2284
  CHANNELS 6 Xposition Yposition Zposition Zrotation Xrotation Yrotation
  JOINT spine
  {
    OFFSET 0 7.96568 0.458067
    CHANNELS 3 Zrotation Xrotation Yrotation
    JOINT spine1
    {
      OFFSET 0 10.2431 0
      CHANNELS 3 Zrotation Xrotation Yrotation
      JOINT spine2
      {
        OFFSET 0 9.81475 0
        CHANNELS 3 Zrotation Xrotation Yrotation
        JOINT Neck
        {
          OFFSET 0 25.1986 1.20138
          CHANNELS 3 Zrotation Xrotation Yrotation
          JOINT Head
          {
            OFFSET 0 7.61315 0
            CHANNELS 3 Zrotation Xrotation Yrotation
            End Site
            {
              OFFSET 0 18.4281 -6.07733
            }
          }
        }
        JOINT RightShoulder
        {
          OFFSET -4.1327 10.5992 -0.575451
          CHANNELS 3 Zrotation Xrotation Yrotation
          JOINT RightArm
          {
            OFFSET 0 13.9018 0
            CHANNELS 3 Zrotation Xrotation Yrotation
            JOINT RightArmRoll
            {
              OFFSET 0 7.01788 0
              CHANNELS 3 Zrotation Xrotation Yrotation
              JOINT RightForeArm
              {
                OFFSET 0 20.4406 0
                CHANNELS 3 Zrotation Xrotation Yrotation
                JOINT RightForeArmRoll
                {
                  OFFSET 0 7.87515 0
                  CHANNELS 3 Zrotation Xrotation Yrotation
                  JOINT RightHand
                  {
                    OFFSET 0 15.8037 0
                    CHANNELS 3 Zrotation Xrotation Yrotation
                    End Site
                    {
                      OFFSET 0 0 0
                    }
                  }
                }
              }
            }
          }
        }
        JOINT LeftShoulder
        {
          OFFSET 4.1327 10.5992 -0.575451
          CHANNELS 3 Zrotation Xrotation Yrotation
          JOINT LeftArm
          {
            OFFSET 0 13.9018 0
            CHANNELS 3 Zrotation Xrotation Yrotation
            JOINT LeftArmRoll
            {
              OFFSET 0 7.01788 0
              CHANNELS 3 Zrotation Xrotation Yrotation
              JOINT LeftForeArm
              {
                OFFSET 0 20.4406 0
                CHANNELS 3 Zrotation Xrotation Yrotation
                JOINT LeftForeArmRoll
                {
                  OFFSET 0 7.87515 0
                  CHANNELS 3 Zrotation Xrotation Yrotation
                  JOINT LeftHand
                  {
                    OFFSET 0 15.8037 0
                    CHANNELS 3 Zrotation Xrotation Yrotation
                    End Site
                    {
                      OFFSET 0 0 0
                    }
                  }
                }
              }
            }
          }
        }
      }
    }
  }
  JOINT RightUpLeg
  {
    OFFSET -7.06048 -1.2947 -1.0861
    CHANNELS 3 Zrotation Xrotation Yrotation
    JOINT RightUpLegRoll
    {
      OFFSET 0 18.5308 0
      CHANNELS 3 Zrotation Xrotation Yrotation
      JOINT RightLeg
      {
        OFFSET 0 -22.9476 0
        CHANNELS 3 Zrotation Xrotation Yrotation
        JOINT RightLegRoll
        {
          OFFSET 0 23.0226 0
          CHANNELS 3 Zrotation Xrotation Yrotation
          JOINT RightFoot
          {
            OFFSET 0 19.1625 0
            CHANNELS 3 Zrotation Xrotation Yrotation
            JOINT RightToeBase
            {
              OFFSET 0 16.0188 0
              CHANNELS 3 Zrotation Xrotation Yrotation
              End Site
              {
                OFFSET 0.00678979 7.75781 -0.894207
              }
            }
          }
        }
      }
    }
  }
  JOINT LeftUpLeg
  {
    OFFSET 7.06048 -1.2947 -1.0861
    CHANNELS 3 Zrotation Xrotation Yrotation
    JOINT LeftUpLegRoll
    {
      OFFSET 0 18.5309 0
      CHANNELS 3 Zrotation Xrotation Yrotation
      JOINT LeftLeg
      {
        OFFSET 0 22.9475 0
        CHANNELS 3 Zrotation Xrotation Yrotation
        JOINT LeftLegRoll
        {
          OFFSET 0 23.2355 0
          CHANNELS 3 Zrotation Xrotation Yrotation
          JOINT LeftFoot
          {
            OFFSET 0 18.9496 0
            CHANNELS 3 Zrotation Xrotation Yrotation
            JOINT LeftToeBase
            {
              OFFSET 0 16.0188 0
              CHANNELS 3 Zrotation Xrotation Yrotation
              End Site
              {
                OFFSET -0.0304289 7.75782 -0.894206
              }
            }
          }
        }
      }
    }
  }
}
MOTION
Frames: 6
Frame Time: 0.00208333
53.069 95.5883 11.9912 -0.355024 -4.80228 1.94411 0.147902 -1.36933 0.0832871 0.315664 1.2833 0.169082 0.314059 2.92837 0.163786 0.24946 22.8617 -2.29186 1.21067 -2.28378 -2.06155 74.5184 2.31001 -0.815778 102.288 16.9805 28.1453 -1.51076e-014 3.18055e-015 -6.36111e-015 -2.80428 -0.0217229 0.346401 -7.08252e-006 4.52286e-006 -3.0047 8.03012 -4.95137 0.69762 -72.5126 3.81383 -0.139258 -106.885 21.9684 -33.1695 -4.77083e-015 6.36111e-015 9.54166e-015 16.8447 -0.126007 -2.14512 1.22538e-005 -2.00866e-006 3.1189 -8.0315 -4.95134 -0.697585 173.825 -5.11762 -0.666205 180 7.01497e-015 178.725 177.622 5.62543 179.606 -1.96154e-006 -5.43848e-006 0.105025 -19.6914 68.9376 20.3538 8.14458 25.359 -3.32026 -172.119 -2.89558 -0.560899 4.5067e-006 -1.99009e-005 -1.1723 -1.53985 -6.80532 0.228488 -4.48504e-006 -8.75613e-006 0.00316161 17.8222 68.408 -19.8444 -8.13649 25.2327 3.48774 
53.0723 95.5846 11.9862 -0.353739 -4.79138 1.93443 0.147601 -1.36996 0.0830805 0.313893 1.28029 0.168683 0.312274 2.92536 0.163426 0.233811 22.8306 -2.28738 1.2192 -2.27339 -2.06167 74.503 2.2971 -0.819438 102.291 16.9379 28.2289 9.54166e-015 -3.18055e-015 3.18055e-015 -2.8693 -0.0234494 0.353019 -7.08252e-006 4.52286e-006 -3.0047 8.03012 -4.95137 0.69762 -72.5248 3.80494 -0.133363 -106.787 21.9805 -33.4174 7.95139e-015 6.36111e-015 9.54166e-015 17.0613 -0.129474 -2.16604 1.22538e-005 -2.00866e-006 3.11532 -8.0315 -4.95134 -0.697585 173.821 -5.10218 -0.662802 180 7.01497e-015 178.725 177.619 5.6336 179.607 -1.96154e-006 -5.43848e-006 0.104942 -19.6963 68.9431 20.3591 8.1445 25.3578 -3.32172 -172.123 -2.88633 -0.558367 4.5067e-006 -1.99009e-005 -1.17286 -1.53899 -6.80948 0.228277 -4.48504e-006 -8.75613e-006 0.00308824 17.8267 68.4116 -19.8484 -8.13649 25.2327 3.48774 
53.0711 95.5893 11.9918 -0.352539 -4.78027 1.92495 0.147314 -1.37057 0.0828743 0.312105 1.27723 0.168312 0.310465 2.92229 0.163096 0.218451 22.7983 -2.28322 1.22813 -2.26105 -2.062 74.4878 2.28414 -0.823153 102.296 16.896 28.3115 3.97569e-015 -3.18055e-015 -3.18055e-015 -2.93452 -0.0258708 0.359594 -7.08252e-006 4.52286e-006 -3.0047 8.03012 -4.95137 0.69762 -72.5374 3.79631 -0.127528 -106.691 21.9943 -33.6689 3.18055e-015 0 6.36111e-015 17.2846 -0.133998 -2.18774 1.22538e-005 -2.00866e-006 3.11175 -8.0315 -4.95134 -0.697585 173.816 -5.0864 -0.659292 180 7.01497e-015 178.725 177.616 5.64213 179.607 -1.96154e-006 -5.43848e-006 0.104845 -19.7015 68.9487 20.3646 8.14442 25.3566 -3.32318 -172.126 -2.87636 -0.555873 4.5067e-006 -1.99009e-005 -1.17343 -1.53806 -6.81439 0.228075 -4.48504e-006 -8.75613e-006 0.00301947 17.8313 68.4154 -19.8527 -8.13649 25.2327 3.48774 
53.0753 95.5839 11.9937 -0.351396 -4.76901 1.91562 0.147038 -1.37117 0.0826684 0.310305 1.27412 0.167961 0.308638 2.91919 0.162787 0.203294 22.7651 -2.27928 1.23734 -2.24736 -2.06246 74.4728 2.27115 -0.826908 102.302 16.8546 28.3934 2.38542e-015 -3.18055e-015 -3.18055e-015 -2.99988 -0.0287787 0.366138 -7.08252e-006 4.52286e-006 -3.0047 8.03012 -4.95137 0.69762 -72.5503 3.78787 -0.121734 -106.596 22.009 -33.9227 -1.59028e-015 0 -0 17.5126 -0.139261 -2.21 1.22538e-005 -2.00866e-006 3.10818 -8.0315 -4.95134 -0.697585 173.812 -5.07038 -0.655708 180 7.01497e-015 178.725 177.613 5.65095 179.607 -1.96154e-006 -5.43848e-006 0.104738 -19.7067 68.9546 20.3703 8.14434 25.3555 -3.32465 -172.13 -2.86589 -0.553406 4.5067e-006 -1.99009e-005 -1.17401 -1.53706 -6.81984 0.227878 -4.48504e-006 -8.75613e-006 0.00295393 17.8359 68.4194 -19.8573 -8.13649 25.2327 3.48774 
53.0753 95.5856 11.9959 -0.350286 -4.75766 1.90636 0.146767 -1.37177 0.0824627 0.308499 1.27099 0.167622 0.306802 2.91606 0.162489 0.188256 22.7314 -2.27548 1.24672 -2.23288 -2.06301 74.458 2.25814 -0.830684 102.31 16.8135 28.475 -8.74653e-015 9.54166e-015 -6.36111e-015 -3.06532 -0.0319646 0.372664 -7.08252e-006 4.52286e-006 -3.0047 8.03012 -4.95137 0.69762 -72.5634 3.77954 -0.115965 -106.502 22.024 -34.178 -1.59028e-015 6.36111e-015 -3.18055e-015 17.7432 -0.144947 -2.23258 1.22538e-005 -2.00866e-006 3.10462 -8.0315 -4.95134 -0.697585 173.807 -5.05421 -0.652081 180 7.01497e-015 178.724 177.61 5.65992 179.608 -1.96154e-006 -5.43848e-006 0.104624 -19.7121 68.9604 20.376 8.14426 25.3543 -3.32612 -172.134 -2.85513 -0.550954 4.5067e-006 -1.99009e-005 -1.17459 -1.53604 -6.82559 0.227686 -4.48504e-006 -8.75613e-006 0.00289023 17.8405 68.4235 -19.8619 -8.13649 25.2327 3.48774 
53.0764 95.5827 11.9909 -0.34918 -4.74629 1.89713 0.146498 -1.37237 0.082257 0.306691 1.26786 0.167285 0.304964 2.91292 0.162194 0.173251 22.6975 -2.2717 1.25613 -2.21822 -2.06357 74.4431 2.24512 -0.834466 102.317 16.7726 28.5565 -2.78299e-014 1.59028e-014 -3.18055e-015 -3.13078 -0.03522 0.379187 -7.08252e-006 4.52286e-006 -3.0047 8.03012 -4.95137 0.69762 -72.5765 3.77124 -0.110201 -106.408 22.0384 -34.4337 2.70347e-014 1.90833e-014 6.36111e-015 17.9744 -0.150739 -2.25524 1.22538e-005 -2.00866e-006 3.10106 -8.0315 -4.95134 -0.697585 173.803 -5.03802 -0.648443 180 7.01497e-015 178.724 177.606 5.66892 179.608 -1.96154e-006 -5.43848e-006 0.104509 -19.7174 68.9664 20.3817 8.14418 25.3531 -3.32759 -172.137 -2.8443 -0.548507 4.5067e-006 -1.99009e-005 -1.17518 -1.535 -6.83142 0.227494 -4.48504e-006 -8.75613e-006 0.00282699 17.8451 68.4276 -19.8666 -8.13649 25.2327 3.48774 
